<?xml version="1.0" encoding="UTF-8" standalone="no"?>
<!-- Created with Inkscape (http://www.inkscape.org/) -->

<svg
   xmlns:dc="http://purl.org/dc/elements/1.1/"
   xmlns:cc="http://creativecommons.org/ns#"
   xmlns:rdf="http://www.w3.org/1999/02/22-rdf-syntax-ns#"
   xmlns:svg="http://www.w3.org/2000/svg"
   xmlns="http://www.w3.org/2000/svg"
   xmlns:xlink="http://www.w3.org/1999/xlink"
   xmlns:sodipodi="http://sodipodi.sourceforge.net/DTD/sodipodi-0.dtd"
   xmlns:inkscape="http://www.inkscape.org/namespaces/inkscape"
   width="3in"
   height="3in"
   viewBox="0 0 76.199998 76.2"
   version="1.1"
   id="svg8"
   inkscape:version="0.92.4 (5da689c313, 2019-01-14)"
   sodipodi:docname="sticker.svg">
  <defs
     id="defs2">
    <inkscape:perspective
       sodipodi:type="inkscape:persp3d"
       inkscape:vp_x="39.998594 : 211.38579 : 1"
       inkscape:vp_y="0 : 349.62174 : 0"
       inkscape:vp_z="103.24372 : 212.70728 : 1"
       inkscape:persp3d-origin="72.347973 : 166.064 : 1"
       id="perspective895" />
  </defs>
  <sodipodi:namedview
     id="base"
     pagecolor="#ffffff"
     bordercolor="#666666"
     borderopacity="1.0"
     inkscape:pageopacity="1"
     inkscape:pageshadow="2"
     inkscape:zoom="2.8"
     inkscape:cx="77.191438"
     inkscape:cy="67.516325"
     inkscape:document-units="mm"
     inkscape:current-layer="layer1"
     showgrid="false"
     inkscape:window-width="1918"
     inkscape:window-height="1054"
     inkscape:window-x="0"
     inkscape:window-y="24"
     inkscape:window-maximized="0"
     fit-margin-top="0"
     fit-margin-left="0"
     fit-margin-right="0"
     fit-margin-bottom="0"
     inkscape:pagecheckerboard="true"
     units="in" />
  <metadata
     id="metadata5">
    <rdf:RDF>
      <cc:Work
         rdf:about="">
        <dc:format>image/svg+xml</dc:format>
        <dc:type
           rdf:resource="http://purl.org/dc/dcmitype/StillImage" />
        <dc:title></dc:title>
      </cc:Work>
    </rdf:RDF>
  </metadata>
  <g
     inkscape:label="Layer 1"
     inkscape:groupmode="layer"
     id="layer1"
     transform="translate(-81.600418,-85.64509)">
    <path
       sodipodi:type="inkscape:offset"
       inkscape:radius="0"
       inkscape:original="M 116.57617 87.328125 C 105.40516 87.410275 97.859334 96.091861 95.78125 106.27734 L 95.78125 106.28516 L 95.78125 106.28711 C 93.401695 116.73672 98.171992 127.36529 107.13477 132.7207 L 105.48438 139.93945 L 114.16992 141.92188 L 117.43945 127.61719 L 113.89453 126.20508 C 106.73402 123.35191 102.84775 115.80338 104.4668 108.26758 C 106.28562 99.801989 111.2838 96.906702 116.57617 96.214844 L 116.57617 87.330078 L 116.57617 87.328125 z M 122.82617 87.328125 L 122.82617 87.330078 L 122.82422 96.214844 C 128.11659 96.906701 133.11477 99.801988 134.93359 108.26758 C 136.55266 115.80338 132.66638 123.34998 125.50586 126.20312 L 121.96289 127.61523 L 125.23047 141.92188 L 133.91602 139.9375 L 132.26562 132.7207 C 141.22846 127.3653 145.99872 116.73672 143.61914 106.28711 L 143.61914 106.2832 L 143.61914 106.27734 C 141.54108 96.092571 133.99721 87.410276 122.82617 87.328125 z M 119.60547 100.73633 L 107.64648 109.53516 L 112.38086 109.53516 L 112.38086 120.31055 L 126.83203 120.31055 L 126.83203 109.53516 L 131.56641 109.53516 L 119.60547 100.73633 z M 84.111328 142.87695 L 84.111328 145.39453 L 86.832031 145.39453 L 86.832031 142.87695 L 84.111328 142.87695 z M 152.56836 142.87695 L 152.56836 147.99023 C 151.72908 147.03474 150.73513 146.55664 149.58594 146.55664 C 148.33347 146.55664 147.29648 147.01157 146.47656 147.92188 C 145.65664 148.82573 145.24805 150.14944 145.24805 151.89258 C 145.24805 153.59698 145.66657 154.92731 146.50586 155.88281 C 147.3516 156.83184 148.36542 157.30664 149.54688 157.30664 C 150.12792 157.30664 150.70335 157.16298 151.27148 156.87891 C 151.84608 156.58839 152.34208 156.15 152.76172 155.5625 L 152.76172 157.07422 L 155.28906 157.07422 L 155.28906 142.87695 L 152.56836 142.87695 z M 104.59375 143.1582 L 101.86133 144.74609 L 101.86133 146.78906 L 100.61328 146.78906 L 100.61328 148.95898 L 101.86133 148.95898 L 101.86133 153.44141 C 101.86133 154.40336 101.89112 155.04303 101.94922 155.35938 C 102.02022 155.80485 102.14736 156.15913 102.32812 156.42383 C 102.51534 156.68207 102.8054 156.89464 103.19922 157.0625 C 103.59304 157.2239 104.03474 157.30664 104.52539 157.30664 C 105.32595 157.30664 106.04309 157.16959 106.67578 156.89844 L 106.44336 154.78711 C 105.96561 154.96142 105.59945 155.04883 105.34766 155.04883 C 105.1669 155.04883 105.01193 155.00445 104.88281 154.91406 C 104.76015 154.82366 104.67937 154.7098 104.64062 154.57422 C 104.60832 154.43219 104.59375 153.94281 104.59375 153.10352 L 104.59375 148.95898 L 106.45312 148.95898 L 106.45312 146.78906 L 104.59375 146.78906 L 104.59375 143.1582 z M 142.08984 143.1582 L 139.35938 144.74609 L 139.35938 146.78906 L 138.10938 146.78906 L 138.10938 148.95898 L 139.35938 148.95898 L 139.35938 153.44141 C 139.35938 154.40336 139.38721 155.04303 139.44531 155.35938 C 139.51631 155.80485 139.64345 156.15913 139.82422 156.42383 C 140.01144 156.68207 140.30149 156.89464 140.69531 157.0625 C 141.08913 157.2239 141.53082 157.30664 142.02148 157.30664 C 142.82203 157.30664 143.53918 157.16959 144.17188 156.89844 L 143.93945 154.78711 C 143.46171 154.96142 143.09748 155.04883 142.8457 155.04883 C 142.66493 155.04883 142.50998 155.00445 142.38086 154.91406 C 142.25819 154.82366 142.17742 154.7098 142.13867 154.57422 C 142.10637 154.43219 142.08984 153.94281 142.08984 153.10352 L 142.08984 148.95898 L 143.94922 148.95898 L 143.94922 146.78906 L 142.08984 146.78906 L 142.08984 143.1582 z M 95.509766 146.55664 C 94.14754 146.55664 93.01849 147.13674 92.121094 148.29883 L 92.121094 146.78906 L 89.591797 146.78906 L 89.591797 157.07422 L 92.314453 157.07422 L 92.314453 152.41602 C 92.314453 151.26684 92.382 150.47883 92.517578 150.05273 C 92.659611 149.62663 92.916564 149.28363 93.291016 149.02539 C 93.665468 148.76715 94.089252 148.63867 94.560547 148.63867 C 94.928541 148.63867 95.24176 148.72935 95.5 148.91016 C 95.764698 149.09092 95.956054 149.34457 96.072266 149.67383 C 96.188473 149.99664 96.246094 150.71378 96.246094 151.82422 L 96.246094 157.07422 L 98.966797 157.07422 L 98.966797 150.68164 C 98.966797 149.88754 98.9158 149.27766 98.8125 148.85156 C 98.71566 148.42546 98.537537 148.0447 98.279297 147.70898 C 98.02751 147.37327 97.653365 147.09977 97.15625 146.88672 C 96.659133 146.66721 96.110179 146.55664 95.509766 146.55664 z M 113.11523 146.55664 C 112.67622 146.55664 112.28222 146.66721 111.93359 146.88672 C 111.59141 147.10622 111.20404 147.56115 110.77148 148.25195 L 110.77148 146.78906 L 108.24414 146.78906 L 108.24414 157.07422 L 110.96484 157.07422 L 110.96484 153.89648 C 110.96484 152.14689 111.03898 150.99799 111.1875 150.44922 C 111.34245 149.90046 111.55366 149.52301 111.81836 149.31641 C 112.08306 149.10336 112.40426 148.99609 112.78516 148.99609 C 113.17898 148.99609 113.60607 149.14443 114.06445 149.44141 L 114.90625 147.07031 C 114.33166 146.72814 113.73501 146.55664 113.11523 146.55664 z M 131.94141 146.55664 C 130.46297 146.55664 129.37168 146.85993 128.66797 147.4668 C 127.96426 148.07367 127.61133 148.82196 127.61133 149.71289 C 127.61133 150.70067 128.01856 151.47212 128.83203 152.02734 C 129.41953 152.42761 130.81081 152.87127 133.00586 153.35547 C 133.47716 153.46522 133.78045 153.58377 133.91602 153.71289 C 134.04515 153.84847 134.11133 154.01998 134.11133 154.22656 C 134.11133 154.53 133.99083 154.77235 133.75195 154.95312 C 133.39687 155.21137 132.86777 155.33984 132.16406 155.33984 C 131.52491 155.33984 131.02695 155.20475 130.67188 154.93359 C 130.31679 154.65598 130.08104 154.25205 129.96484 153.72266 L 127.23438 154.13867 C 127.48616 155.11353 128.01857 155.88498 128.83203 156.45312 C 129.65195 157.02125 130.7631 157.30664 132.16406 157.30664 C 133.70706 157.30664 134.87252 156.96694 135.66016 156.28906 C 136.4478 155.61117 136.8418 154.8 136.8418 153.85742 C 136.8418 152.99231 136.55641 152.31819 135.98828 151.83398 C 135.41369 151.35623 134.39988 150.95232 132.94727 150.62305 C 131.50112 150.2938 130.65548 150.04015 130.41016 149.85938 C 130.22938 149.72379 130.14063 149.55891 130.14062 149.36523 C 130.14062 149.13927 130.24263 148.95453 130.44922 148.8125 C 130.75912 148.61237 131.27361 148.51172 131.99023 148.51172 C 132.55836 148.51172 132.99345 148.61898 133.29688 148.83203 C 133.60677 149.04508 133.81603 149.35167 133.92578 149.75195 L 136.49219 149.27734 C 136.23395 148.37995 135.76247 147.70252 135.07812 147.24414 C 134.39379 146.78577 133.34884 146.55664 131.94141 146.55664 z M 84.111328 146.78906 L 84.111328 157.07422 L 86.832031 157.07422 L 86.832031 146.78906 L 84.111328 146.78906 z M 116.00977 146.78906 L 116.00977 153.29688 C 116.00977 154.26528 116.13358 155.0235 116.37891 155.57227 C 116.62424 156.12104 117.02154 156.54618 117.57031 156.84961 C 118.11907 157.15304 118.73889 157.30664 119.42969 157.30664 C 120.10757 157.30664 120.75055 157.14642 121.35742 156.83008 C 121.97075 156.51373 122.46344 156.08196 122.83789 155.5332 L 122.83789 157.07422 L 125.36523 157.07422 L 125.36523 146.78906 L 122.64453 146.78906 L 122.64453 151.12695 C 122.64453 152.59893 122.57701 153.52534 122.44141 153.90625 C 122.30583 154.28071 122.05354 154.59724 121.68555 154.85547 C 121.31755 155.10726 120.90039 155.23242 120.43555 155.23242 C 120.02882 155.23242 119.69438 155.14032 119.42969 154.95312 C 119.16499 154.75943 118.98025 154.50053 118.87695 154.17773 C 118.78015 153.84846 118.73242 152.95983 118.73242 151.51367 L 118.73242 146.78906 L 116.00977 146.78906 z M 150.30273 148.63867 C 150.9677 148.63867 151.51335 148.89893 151.93945 149.42188 C 152.36555 149.93837 152.57812 150.78729 152.57812 151.96875 C 152.57812 153.02754 152.35893 153.82547 151.91992 154.36133 C 151.48091 154.89072 150.94851 155.15625 150.32227 155.15625 C 149.53463 155.15625 148.92143 154.80001 148.48242 154.08984 C 148.17898 153.59919 148.02539 152.80651 148.02539 151.70898 C 148.02539 150.68892 148.24322 149.92409 148.67578 149.41406 C 149.11479 148.89757 149.65712 148.63867 150.30273 148.63867 z "
       xlink:href="#path4570"
       style="font-style:normal;font-variant:normal;font-weight:bold;font-stretch:normal;font-size:21.43511391px;line-height:1.25;font-family:Arial;-inkscape-font-specification:'Arial Bold';font-variant-ligatures:normal;font-variant-caps:normal;font-variant-numeric:normal;font-feature-settings:normal;text-align:start;letter-spacing:0px;word-spacing:0px;writing-mode:lr-tb;text-anchor:start;display:inline;fill:#000000;fill-opacity:1;stroke:none;stroke-width:1.56165409"
       id="path4621"
       inkscape:href="#path4570"
       d="m 116.57617,87.328125 c -11.17101,0.08215 -18.716836,8.763734 -20.79492,18.949215 v 0.006 0.004 c -2.379555,10.4496 2.390745,21.07819 11.35352,26.43359 l -1.65039,7.2168 8.68554,1.98438 3.26953,-14.30665 -3.54492,-1.41211 c -7.1605,-2.85316 -11.04678,-10.39975 -9.42773,-17.93554 1.81881,-8.465593 6.817,-11.360878 12.10937,-12.052736 v -8.884766 z m 6.25,0 v 0.002 l -0.002,8.884766 c 5.29236,0.691858 10.29056,3.587143 12.10937,12.052736 1.61908,7.53579 -2.26721,15.08239 -9.42773,17.93554 l -3.54297,1.41211 3.26758,14.30665 8.68555,-1.98438 -1.6504,-7.2168 c 8.96285,-5.3554 13.7331,-15.98399 11.35352,-26.43359 v -0.004 -0.006 C 141.54107,96.091868 133.99721,87.410276 122.82617,87.328125 Z m -3.2207,13.408205 -11.95899,8.79883 h 4.73438 v 10.77539 h 14.45117 v -10.77539 h 4.73438 z m -35.494142,42.14062 v 2.51758 h 2.720703 v -2.51758 z m 68.457032,0 v 5.11328 c -0.83928,-0.95549 -1.83324,-1.43359 -2.98242,-1.43359 -1.25247,0 -2.28945,0.45493 -3.10938,1.36524 -0.81991,0.90384 -1.22851,2.22756 -1.22851,3.9707 0,1.7044 0.41852,3.03474 1.25781,3.99023 0.84574,0.94904 1.85955,1.42383 3.04102,1.42383 0.58104,0 1.15647,-0.14367 1.7246,-0.42773 0.5746,-0.29052 1.0706,-0.72891 1.49024,-1.31641 v 1.51172 h 2.52734 v -14.19727 z m -47.97461,0.28125 -2.73242,1.58789 v 2.04297 h -1.24805 v 2.16992 h 1.24805 v 4.48243 c 0,0.96195 0.0298,1.60162 0.0879,1.91797 0.071,0.44546 0.19813,0.79974 0.3789,1.06445 0.18723,0.25824 0.47728,0.47081 0.8711,0.63867 0.39382,0.1614 0.83551,0.24414 1.32617,0.24414 0.80055,0 1.51769,-0.13705 2.15039,-0.4082 l -0.23242,-2.11133 c -0.47775,0.17431 -0.84392,0.26172 -1.0957,0.26172 -0.18077,0 -0.33572,-0.0444 -0.46485,-0.13477 -0.12266,-0.0904 -0.20344,-0.20426 -0.24219,-0.33984 -0.0323,-0.14203 -0.0469,-0.63141 -0.0469,-1.4707 v -4.14454 h 1.85937 v -2.16992 h -1.85937 z m 37.49609,0 -2.73046,1.58789 v 2.04297 h -1.25 v 2.16992 h 1.25 v 4.48243 c 0,0.96195 0.0278,1.60162 0.0859,1.91797 0.071,0.44546 0.19814,0.79974 0.37891,1.06445 0.18722,0.25824 0.47727,0.47081 0.87109,0.63867 0.39382,0.1614 0.83552,0.24414 1.32617,0.24414 0.80056,0 1.5177,-0.13705 2.1504,-0.4082 l -0.23243,-2.11133 c -0.47774,0.17431 -0.84196,0.26172 -1.09375,0.26172 -0.18077,0 -0.33572,-0.0444 -0.46484,-0.13477 -0.12266,-0.0904 -0.20345,-0.20426 -0.24219,-0.33984 -0.0323,-0.14203 -0.0488,-0.63141 -0.0488,-1.4707 v -4.14454 h 1.85938 v -2.16992 h -1.85938 z m -46.580074,3.39844 c -1.362227,0 -2.491277,0.58009 -3.388672,1.74219 v -1.50977 h -2.529297 v 10.28516 h 2.722656 v -4.6582 c 0,-1.14918 0.06755,-1.93719 0.203125,-2.36329 0.142033,-0.4261 0.398986,-0.7691 0.773438,-1.02734 0.374451,-0.25824 0.798235,-0.38672 1.269531,-0.38672 0.367993,0 0.681214,0.0907 0.939453,0.27149 0.264698,0.18076 0.456054,0.43441 0.572266,0.76367 0.116206,0.3228 0.173828,1.03995 0.173828,2.15039 v 5.25 h 2.720703 v -6.39258 c 0,-0.79409 -0.051,-1.40398 -0.154297,-1.83008 -0.09684,-0.42609 -0.274963,-0.80686 -0.533203,-1.14258 -0.251787,-0.33571 -0.625931,-0.60921 -1.123047,-0.82226 -0.497117,-0.21951 -1.046072,-0.33008 -1.646484,-0.33008 z m 17.605464,0 c -0.43901,0 -0.83301,0.11057 -1.18164,0.33008 -0.34217,0.2195 -0.72955,0.67444 -1.16211,1.36523 v -1.46289 h -2.52734 v 10.28516 h 2.7207 v -3.17774 c 0,-1.74958 0.0742,-2.8985 0.22266,-3.44726 0.15495,-0.54877 0.36616,-0.92621 0.63086,-1.13281 0.2647,-0.21305 0.58589,-0.32032 0.9668,-0.32032 0.39382,0 0.82091,0.14833 1.27929,0.44532 l 0.8418,-2.3711 c -0.57459,-0.34217 -1.17123,-0.51367 -1.79102,-0.51367 z m 18.82618,0 c -1.47844,0 -2.56973,0.30329 -3.27344,0.91016 -0.70371,0.60687 -1.05664,1.35516 -1.05664,2.24609 0,0.98778 0.40724,1.75923 1.2207,2.31445 0.58751,0.40028 1.97877,0.84392 4.17383,1.32813 0.47129,0.10975 0.77458,0.2283 0.91016,0.35742 0.12912,0.13558 0.19531,0.30708 0.19531,0.51367 0,0.30344 -0.1205,0.54579 -0.35938,0.72656 -0.35508,0.25824 -0.88418,0.38672 -1.58789,0.38672 -0.63915,0 -1.1371,-0.13509 -1.49218,-0.40625 -0.35509,-0.27761 -0.59083,-0.68154 -0.70704,-1.21093 l -2.73046,0.41601 c 0.25178,0.97487 0.78419,1.74632 1.59765,2.31445 0.81992,0.56814 1.93107,0.85352 3.33203,0.85352 1.543,0 2.70846,-0.3397 3.4961,-1.01758 0.78763,-0.67788 1.18164,-1.48905 1.18164,-2.43164 0,-0.86511 -0.28539,-1.53923 -0.85352,-2.02344 -0.57458,-0.47774 -1.5884,-0.88167 -3.04101,-1.21093 -1.44616,-0.32926 -2.29178,-0.58291 -2.53711,-0.76367 -0.18078,-0.13558 -0.26954,-0.30047 -0.26954,-0.49415 0,-0.22596 0.10201,-0.4107 0.3086,-0.55273 0.30989,-0.20013 0.8244,-0.30078 1.54101,-0.30078 0.56814,-1e-5 1.00321,0.10726 1.30665,0.32031 0.30989,0.21305 0.51915,0.51965 0.6289,0.91992 l 2.56641,-0.47461 c -0.25824,-0.89739 -0.72972,-1.57482 -1.41407,-2.0332 -0.68433,-0.45838 -1.72929,-0.6875 -3.13671,-0.6875 z m -47.830082,0.23242 v 10.28516 h 2.720703 v -10.28516 z m 31.898442,0 v 6.50782 c 0,0.9684 0.12381,1.72662 0.36914,2.27539 0.24533,0.54877 0.64264,0.9739 1.1914,1.27734 0.54876,0.30343 1.16858,0.45703 1.85938,0.45703 0.67788,0 1.32087,-0.16022 1.92773,-0.47656 0.61333,-0.31635 1.10602,-0.74811 1.48047,-1.29688 v 1.54102 h 2.52734 v -10.28516 h -2.7207 v 4.33789 c 0,1.47198 -0.0675,2.39839 -0.20312,2.7793 -0.13558,0.37445 -0.38787,0.69098 -0.75586,0.94922 -0.368,0.25179 -0.78516,0.37695 -1.25,0.37695 -0.40673,0 -0.74117,-0.0921 -1.00586,-0.2793 -0.2647,-0.19368 -0.44944,-0.45258 -0.55274,-0.77539 -0.0968,-0.32926 -0.14453,-1.21791 -0.14453,-2.66406 v -4.72461 z m 34.29296,1.84961 c 0.66497,0 1.21062,0.26027 1.63672,0.78321 0.4261,0.51648 0.63867,1.36541 0.63867,2.54687 0,1.05879 -0.21919,1.85672 -0.6582,2.39258 -0.43901,0.52939 -0.97337,0.79492 -1.59961,0.79492 -0.78764,0 -1.39888,-0.35624 -1.83789,-1.06641 -0.30344,-0.49066 -0.45703,-1.28333 -0.45703,-2.38086 0,-1.02005 0.21783,-1.78489 0.65039,-2.29492 0.43901,-0.51648 0.98134,-0.77539 1.62695,-0.77539 z" />
    <path
       style="font-style:normal;font-variant:normal;font-weight:bold;font-stretch:normal;font-size:21.43511391px;line-height:1.25;font-family:Arial;-inkscape-font-specification:'Arial Bold';font-variant-ligatures:normal;font-variant-caps:normal;font-variant-numeric:normal;font-feature-settings:normal;text-align:start;letter-spacing:0px;word-spacing:0px;writing-mode:lr-tb;text-anchor:start;display:inline;fill:#ffffff;fill-opacity:1;stroke:#000000;stroke-width:0.26458332;stroke-miterlimit:4;stroke-dasharray:none;stroke-dashoffset:0"
       d="m 96.246111,158.96697 h 2.720703 c 0.866558,-4.6e-4 1.622086,-0.58944 1.833986,-1.42969 0.44248,0.60854 1.04192,1.00377 1.65625,1.26562 0.008,0.003 0.0169,0.007 0.0254,0.01 0.64324,0.26362 1.33959,0.38672 2.04297,0.38672 0.95067,0 1.86042,-0.19111 2.70899,-0.52539 0.30215,0.19107 0.65225,0.29265 1.00976,0.29297 h 2.7207 c 1.04527,8e-5 1.89266,-0.8473 1.89258,-1.89258 v -3.17774 c 0,-1.65462 0.13091,-2.76914 0.15235,-2.88086 0.0217,0.0128 3e-4,-0.003 0.0254,0.0137 0.32171,0.20812 0.69902,0.31369 1.08203,0.30273 v 1.96485 c 0,1.12968 0.12159,2.12178 0.53515,3.04687 0.40738,0.91124 1.13663,1.68365 2.00196,2.16211 0.84014,0.46454 1.80409,0.69336 2.77539,0.69336 0.81075,0 1.58599,-0.26053 2.32812,-0.57422 0.31667,0.22155 0.69359,0.34083 1.08008,0.3418 h 2.52734 c 0.89388,-9.9e-4 1.66517,-0.62731 1.84961,-1.50196 0.18748,0.1717 0.32395,0.39291 0.53321,0.53907 0.002,10e-4 0.004,0.003 0.006,0.004 1.23391,0.85499 2.75221,1.19141 4.41015,1.19141 1.82073,0 3.48023,-0.40055 4.73047,-1.47656 0.40827,-0.35138 0.69164,-0.81693 0.97852,-1.27344 0.11361,0.35096 0.16665,0.71591 0.38867,1.04101 0.0102,0.0151 0.0206,0.0301 0.0312,0.0449 0.44271,0.61065 1.04455,1.00518 1.66015,1.26757 0.008,0.003 0.0169,0.007 0.0254,0.01 0.64322,0.26361 1.33958,0.38672 2.04296,0.38672 1.01652,0 2.00013,-0.17836 2.89649,-0.5625 0.41756,-0.17948 0.75658,-0.50325 0.95508,-0.91211 1.05757,0.8668 2.31136,1.47461 3.67383,1.47461 0.76135,0 1.49209,-0.23907 2.1914,-0.53516 0.30503,0.19701 0.66031,0.30211 1.02344,0.30274 h 2.52734 c 1.04527,8e-5 1.89266,-0.8473 1.89258,-1.89258 v -14.19727 c 7e-5,-1.04527 -0.84731,-1.89265 -1.89258,-1.89257 h -2.7207 c -14.65221,0 -16.96241,1.02417 -18.17779,-7.45902 8.79683,-5.92445 13.42738,-16.69218 11.11524,-27.37891 -0.006,-0.0833 -0.0167,-0.16618 -0.0332,-0.24804 -0.002,-0.009 -0.006,-0.0167 -0.008,-0.0254 -2.2232,-10.846462 -10.48958,-20.34826 -25.76362,-20.437833 -15.27186,0.0889 -23.540624,9.586239 -25.765573,20.431313 v 0.006 c -0.0018,0.009 -0.006,0.0167 -0.0078,0.0254 -0.01661,0.0825 -0.0277,0.16602 -0.0332,0.25 -2.311151,10.6861 2.318991,21.45285 11.115243,27.37695 -2.04882,8.87639 -10.21201,7.68109 -18.177743,7.45899 h -2.720703 c -1.045272,-8e-5 -1.892655,0.8473 -1.892578,1.89257 v 2.51758 1.39453 10.28516 c -8.2e-5,1.04528 0.847302,1.89266 1.892578,1.89258 h 2.720703 c 0.523696,-8.2e-4 1.023638,-0.21862 1.38086,-0.60157 0.356758,0.38245 0.85589,0.60021 1.378906,0.60157 h 2.722656 c 1.045276,8e-5 1.89266,-0.8473 1.965821,-1.89258 0.07316,1.04528 0.920545,1.89266 1.965821,1.89258 z m 4.406229,-10.56072 c 0.002,0.008 0.003,0.0189 0.002,0.0156 -0.001,-0.005 -8.1e-4,-0.0109 -0.002,-0.0156 z m 36.92383,7.25 c 9.6e-4,0.006 0.005,0.0115 0.006,0.0176 0.001,0.008 4.9e-4,0.0194 0.002,0.0273 z"
       id="path4630"
       inkscape:connector-curvature="0"
       sodipodi:nodetypes="cccccsccccscccsccsccccccsccccccsccsccccccccccccccccccccccccccccccccccccc" />
    <path
       style="font-style:normal;font-variant:normal;font-weight:bold;font-stretch:normal;font-size:21.43511391px;line-height:1.25;font-family:Arial;-inkscape-font-specification:'Arial Bold';font-variant-ligatures:normal;font-variant-caps:normal;font-variant-numeric:normal;font-feature-settings:normal;text-align:start;letter-spacing:0px;word-spacing:0px;writing-mode:lr-tb;text-anchor:start;display:inline;fill:#000000;fill-opacity:1;stroke:none;stroke-width:0.41318765"
       d="m 116.57554,87.328708 c -11.17101,0.08215 -18.715992,8.763229 -20.794076,18.948712 v 0.007 0.003 c -2.379555,10.44961 2.390542,21.07812 11.353316,26.43353 l -1.65003,7.21816 8.68577,1.98335 3.26802,-14.30559 -3.54345,-1.41232 c -7.16051,-2.85317 -11.04742,-10.40058 -9.42837,-17.93638 1.81882,-8.465589 6.81697,-11.360635 12.10934,-12.052493 l -5.3e-4,-8.885762 z m 6.24975,0 v 5.16e-4 l -5.3e-4,8.885763 c 5.29237,0.691857 10.29001,3.586903 12.10883,12.052493 1.61907,7.5358 -2.26733,15.08322 -9.42785,17.93637 l -3.54346,1.41232 3.26802,14.30559 8.68578,-1.98335 -1.65003,-7.21816 c 8.96284,-5.3554 13.73289,-15.98392 11.35331,-26.43353 v -0.003 -0.007 C 141.5413,96.091947 133.99633,87.410859 122.82529,87.328708 Z m -3.21892,13.407962 -11.95948,8.79792 h 4.73304 v 10.77557 h 14.45287 v -10.77557 h 4.73304 z m -35.494994,42.13955 v 2.51819 h 2.721281 v -2.51819 z m 68.456804,0 v 5.11338 c -0.83928,-0.95549 -1.83358,-1.4335 -2.98277,-1.4335 -1.25247,0 -2.28841,0.4555 -3.10833,1.36581 -0.81992,0.90385 -1.2299,2.22716 -1.2299,3.9703 0,1.7044 0.41955,3.03444 1.25884,3.98994 0.84574,0.94903 1.85918,1.42368 3.04064,1.42368 0.58104,0 1.15579,-0.14226 1.72392,-0.42633 0.5746,-0.29052 1.07174,-0.72973 1.49138,-1.31723 v 1.51102 h 2.5275 v -14.19707 z m -47.97485,0.28112 -2.7311,1.58802 v 2.04328 h -1.24902 v 2.16938 h 1.24902 v 4.48345 c 0,0.96195 0.0292,1.60136 0.0873,1.91771 0.071,0.44547 0.19699,0.80035 0.37776,1.06505 0.18722,0.25824 0.47744,0.47138 0.87126,0.63924 0.39382,0.1614 0.8364,0.24236 1.32705,0.24236 0.80056,0 1.51705,-0.13554 2.14974,-0.40669 l -0.23254,-2.1115 c -0.47775,0.17431 -0.84272,0.26148 -1.09451,0.26148 -0.18076,0 -0.33545,-0.045 -0.46457,-0.13539 -0.12266,-0.0904 -0.20362,-0.20342 -0.24236,-0.339 -0.0323,-0.14203 -0.0481,-0.63245 -0.0481,-1.47174 v -4.14497 h 1.85932 v -2.16938 h -1.85932 z m 37.49642,0 -2.73058,1.58802 v 2.04328 h -1.24954 v 2.16938 h 1.24954 v 4.48345 c 0,0.96195 0.0287,1.60136 0.0868,1.91771 0.071,0.44547 0.19699,0.80035 0.37776,1.06505 0.18722,0.25824 0.47796,0.47138 0.87178,0.63924 0.39382,0.1614 0.83587,0.24236 1.32653,0.24236 0.80055,0 1.51756,-0.13554 2.15026,-0.40669 l -0.23255,-2.1115 c -0.47774,0.17431 -0.84272,0.26148 -1.0945,0.26148 -0.18077,0 -0.33545,-0.045 -0.46457,-0.13539 -0.12267,-0.0904 -0.20362,-0.20342 -0.24237,-0.339 -0.0323,-0.14203 -0.048,-0.63245 -0.048,-1.47174 v -4.14497 h 1.85931 v -2.16938 h -1.85983 z m -46.580104,3.39876 c -1.362226,0 -2.492061,0.58147 -3.389457,1.74356 v -1.51102 h -2.527494 v 10.28465 h 2.721281 v -4.65811 c 0,-1.14918 0.06751,-1.93655 0.203088,-2.36265 0.142033,-0.4261 0.400178,-0.76857 0.77463,-1.02681 0.374452,-0.25824 0.797361,-0.38758 1.268656,-0.38758 0.367994,0 0.681238,0.0905 0.939478,0.27131 0.264698,0.18076 0.455329,0.43606 0.571541,0.76532 0.116207,0.32281 0.17415,1.0393 0.17415,2.14974 v 5.24878 H 98.9668 v -6.39134 c 0,-0.7941 -0.05173,-1.40428 -0.15503,-1.83038 -0.09684,-0.4261 -0.274544,-0.80737 -0.532784,-1.14309 -0.251787,-0.33571 -0.625813,-0.60963 -1.122928,-0.82268 -0.497117,-0.21951 -1.045999,-0.3297 -1.646412,-0.3297 z m 17.605644,0 c -0.43901,0 -0.83269,0.11019 -1.18132,0.3297 -0.34218,0.2195 -0.72965,0.67449 -1.16221,1.36529 v -1.46245 h -2.52749 v 10.28465 h 2.72128 v -3.17655 c 0,-1.74959 0.0742,-2.89857 0.22272,-3.44734 0.15495,-0.54876 0.36472,-0.92666 0.62942,-1.13326 0.2647,-0.21305 0.58752,-0.31936 0.96842,-0.31936 0.39382,0 0.81958,0.14847 1.27796,0.44545 l 0.84284,-2.37247 c -0.57459,-0.34217 -1.17184,-0.51366 -1.79162,-0.51366 z m 18.82572,0 c -1.47844,0 -2.56947,0.30367 -3.27318,0.91054 -0.70371,0.60687 -1.05575,1.35596 -1.05575,2.24689 0,0.98778 0.40713,1.75885 1.2206,2.31407 0.5875,0.40027 1.97885,0.84285 4.1739,1.32705 0.4713,0.10975 0.77445,0.229 0.91002,0.35812 0.12913,0.13558 0.19379,0.30656 0.19379,0.51314 0,0.30344 -0.11924,0.54581 -0.35812,0.72658 -0.35508,0.25824 -0.88482,0.38705 -1.58853,0.38705 -0.63915,0 -1.1363,-0.13553 -1.49138,-0.40669 -0.35509,-0.27761 -0.59073,-0.68087 -0.70693,-1.21026 l -2.73059,0.41651 c 0.25179,0.97486 0.78438,1.74645 1.59784,2.31459 0.81992,0.56813 1.9301,0.85214 3.33106,0.85214 1.543,0 2.70827,-0.33911 3.49591,-1.01699 0.78764,-0.67789 1.18184,-1.48828 1.18184,-2.43086 0,-0.86511 -0.28453,-1.53944 -0.85266,-2.02365 -0.57459,-0.47775 -1.58803,-0.88151 -3.04064,-1.21078 -1.44615,-0.32925 -2.29199,-0.58404 -2.53731,-0.76481 -0.18078,-0.13558 -0.27079,-0.30035 -0.27079,-0.49403 0,-0.22596 0.10295,-0.40987 0.30954,-0.5519 0.3099,-0.20013 0.82334,-0.30024 1.53996,-0.30024 0.56813,0 1.00398,0.10631 1.30741,0.31936 0.3099,0.21305 0.51967,0.52008 0.62942,0.92036 l 2.56625,-0.47491 c -0.25824,-0.89739 -0.72952,-1.57509 -1.41386,-2.03347 -0.68434,-0.45837 -1.73037,-0.68781 -3.1378,-0.68781 z m -47.829634,0.23254 v 10.28465 h 2.721281 v -10.28465 z m 31.899344,0 v 6.50762 c 0,0.9684 0.12261,1.72706 0.36794,2.27583 0.24533,0.54877 0.64237,0.97504 1.19114,1.27847 0.54876,0.30343 1.16852,0.45527 1.85932,0.45527 0.67788,0 1.32066,-0.15856 1.92753,-0.4749 0.61333,-0.31635 1.10711,-0.74884 1.48156,-1.2976 v 1.53996 h 2.52749 v -10.28465 h -2.72128 v 4.33876 c 0,1.47198 -0.068,2.39824 -0.2036,2.77915 -0.13558,0.37446 -0.387,0.69055 -0.75499,0.94878 -0.368,0.25179 -0.7847,0.37776 -1.24954,0.37776 -0.40673,0 -0.74248,-0.0934 -1.00717,-0.2806 -0.2647,-0.19369 -0.44861,-0.45183 -0.55191,-0.77463 -0.0968,-0.32927 -0.14521,-1.21725 -0.14521,-2.66341 v -4.72581 z m 34.29145,1.8495 c 0.66497,0 1.21049,0.26151 1.63659,0.78445 0.4261,0.51649 0.63924,1.36567 0.63924,2.54713 0,1.05879 -0.21987,1.85625 -0.65888,2.39211 -0.43901,0.52939 -0.97159,0.79375 -1.59783,0.79375 -0.78764,0 -1.40067,-0.35489 -1.83968,-1.06506 -0.30344,-0.49065 -0.45527,-1.28475 -0.45527,-2.38228 0,-1.02006 0.21649,-1.78492 0.64905,-2.29495 0.43901,-0.51649 0.98117,-0.77515 1.62678,-0.77515 z"
       id="path4570"
       inkscape:connector-curvature="0" />
  </g>
  <g
     inkscape:groupmode="layer"
     id="layer2"
     inkscape:label="Top"
     style="display:inline"
     transform="translate(4.2408784,48.21252)">
    <g
       transform="matrix(0.92525797,0,0,0.92525797,-105.91125,-120.34101)"
       aria-label="intrustd."
       style="font-style:normal;font-variant:normal;font-weight:bold;font-stretch:normal;font-size:8.33587646px;line-height:1.25;font-family:sans-serif;-inkscape-font-specification:'sans-serif Bold';letter-spacing:0px;word-spacing:0px;fill:#000000;fill-opacity:1;stroke:none;stroke-width:0.44656482"
       id="text4079">
      <path
         d="m 112.59709,142.53066 v -2.72126 h 2.94105 v 2.72126 z m 0,12.62243 v -11.11528 h 2.94105 v 11.11528 z"
         style="font-style:normal;font-variant:normal;font-weight:bold;font-stretch:normal;font-size:21.43511391px;font-family:Arial;-inkscape-font-specification:'Arial Bold';font-variant-ligatures:normal;font-variant-caps:normal;font-variant-numeric:normal;font-feature-settings:normal;text-align:start;writing-mode:lr-tb;text-anchor:start;fill:#000000;stroke-width:0.44656482"
         id="path4101"
         inkscape:connector-curvature="0" />
      <path
         d="m 128.65249,155.15309 h -2.94105 v -5.67277 q 0,-1.80021 -0.18839,-2.32353 -0.1884,-0.53379 -0.61752,-0.82684 -0.41865,-0.29306 -1.01523,-0.29306 -0.76405,0 -1.3711,0.41865 -0.60705,0.41866 -0.83731,1.10944 -0.21979,0.69078 -0.21979,2.55379 v 5.03432 h -2.94105 v -11.11528 h 2.73172 v 1.63276 q 1.45483,-1.88395 3.66323,-1.88395 0.97337,0 1.77928,0.35586 0.80591,0.34539 1.2141,0.88964 0.41865,0.54425 0.57565,1.23503 0.16746,0.69078 0.16746,1.97814 z"
         style="font-style:normal;font-variant:normal;font-weight:bold;font-stretch:normal;font-size:21.43511391px;font-family:Arial;-inkscape-font-specification:'Arial Bold';font-variant-ligatures:normal;font-variant-caps:normal;font-variant-numeric:normal;font-feature-settings:normal;text-align:start;writing-mode:lr-tb;text-anchor:start;fill:#000000;stroke-width:0.44656482"
         id="path4103"
         inkscape:connector-curvature="0" />
      <path
         d="m 136.74299,144.03781 v 2.34447 h -2.00954 v 4.4796 q 0,1.36063 0.0523,1.59089 0.0628,0.21979 0.26166,0.36632 0.20933,0.14653 0.50238,0.14653 0.40819,0 1.1827,-0.28259 l 0.2512,2.28167 q -1.02571,0.43958 -2.32354,0.43958 -0.79544,0 -1.43389,-0.26165 -0.63845,-0.27213 -0.94197,-0.69078 -0.29306,-0.42913 -0.40819,-1.15131 -0.0942,-0.51285 -0.0942,-2.07234 v -4.84592 h -1.35016 v -2.34447 h 1.35016 v -2.2084 l 2.95152,-1.71648 v 3.92488 z"
         style="font-style:normal;font-variant:normal;font-weight:bold;font-stretch:normal;font-size:21.43511391px;font-family:Arial;-inkscape-font-specification:'Arial Bold';font-variant-ligatures:normal;font-variant-caps:normal;font-variant-numeric:normal;font-feature-settings:normal;text-align:start;writing-mode:lr-tb;text-anchor:start;fill:#000000;stroke-width:0.44656482"
         id="path4105"
         inkscape:connector-curvature="0" />
      <path
         d="m 141.62032,155.15309 h -2.94105 v -11.11528 h 2.73172 v 1.58042 q 0.70124,-1.1199 1.25596,-1.47575 0.56519,-0.35586 1.2769,-0.35586 1.00477,0 1.93628,0.55472 l -0.91058,2.56426 q -0.74311,-0.48146 -1.38156,-0.48146 -0.61751,0 -1.04663,0.34539 -0.42913,0.33493 -0.68032,1.22457 -0.24072,0.88964 -0.24072,3.72602 z"
         style="font-style:normal;font-variant:normal;font-weight:bold;font-stretch:normal;font-size:21.43511391px;font-family:Arial;-inkscape-font-specification:'Arial Bold';font-variant-ligatures:normal;font-variant-caps:normal;font-variant-numeric:normal;font-feature-settings:normal;text-align:start;writing-mode:lr-tb;text-anchor:start;fill:#000000;stroke-width:0.44656482"
         id="path4107"
         inkscape:connector-curvature="0" />
      <path
         d="m 154.45208,155.15309 v -1.66415 q -0.60705,0.88964 -1.60136,1.40249 -0.98383,0.51285 -2.0828,0.51285 -1.1199,0 -2.00954,-0.49191 -0.88964,-0.49192 -1.28737,-1.38157 -0.39772,-0.88964 -0.39772,-2.45959 v -7.0334 h 2.94105 v 5.10759 q 0,2.34446 0.157,2.87825 0.16746,0.52332 0.59658,0.83731 0.42912,0.30352 1.0885,0.30352 0.75358,0 1.35016,-0.40819 0.59658,-0.41865 0.81638,-1.0257 0.21979,-0.61752 0.21979,-3.00385 v -4.68893 h 2.94105 v 11.11528 z"
         style="font-style:normal;font-variant:normal;font-weight:bold;font-stretch:normal;font-size:21.43511391px;font-family:Arial;-inkscape-font-specification:'Arial Bold';font-variant-ligatures:normal;font-variant-caps:normal;font-variant-numeric:normal;font-feature-settings:normal;text-align:start;writing-mode:lr-tb;text-anchor:start;fill:#000000;stroke-width:0.44656482"
         id="path4109"
         inkscape:connector-curvature="0" />
      <path
         d="m 159.20381,151.98178 2.95151,-0.45005 q 0.1884,0.85824 0.76405,1.30829 0.57565,0.43959 1.61182,0.43959 1.14083,0 1.71648,-0.41865 0.38726,-0.29306 0.38726,-0.78498 0,-0.33492 -0.20933,-0.55472 -0.21979,-0.20932 -0.98384,-0.38725 -3.55856,-0.78498 -4.511,-1.43389 -1.31876,-0.90011 -1.31876,-2.50147 0,-1.44435 1.14083,-2.42819 1.14083,-0.98384 3.53763,-0.98384 2.28167,0 3.3911,0.74311 1.10944,0.74311 1.52809,2.19794 l -2.77358,0.51285 q -0.17793,-0.64891 -0.68032,-0.9943 -0.49192,-0.34539 -1.41296,-0.34539 -1.16176,0 -1.66415,0.32445 -0.33492,0.23026 -0.33492,0.59659 0,0.31399 0.29306,0.53378 0.39772,0.29306 2.74218,0.82684 2.35494,0.53379 3.28644,1.3083 0.92104,0.78498 0.92104,2.18747 0,1.52809 -1.27689,2.62706 -1.2769,1.09896 -3.77836,1.09896 -2.2712,0 -3.60043,-0.92104 -1.31876,-0.92104 -1.72695,-2.50146 z"
         style="font-style:normal;font-variant:normal;font-weight:bold;font-stretch:normal;font-size:21.43511391px;font-family:Arial;-inkscape-font-specification:'Arial Bold';font-variant-ligatures:normal;font-variant-caps:normal;font-variant-numeric:normal;font-feature-settings:normal;text-align:start;writing-mode:lr-tb;text-anchor:start;fill:#000000;stroke-width:0.44656482"
         id="path4111"
         inkscape:connector-curvature="0" />
      <path
         d="m 177.26875,144.03781 v 2.34447 h -2.00954 v 4.4796 q 0,1.36063 0.0523,1.59089 0.0628,0.21979 0.26166,0.36632 0.20933,0.14653 0.50239,0.14653 0.40818,0 1.18269,-0.28259 l 0.2512,2.28167 q -1.02571,0.43958 -2.32354,0.43958 -0.79544,0 -1.43389,-0.26165 -0.63845,-0.27213 -0.94197,-0.69078 -0.29306,-0.42913 -0.40819,-1.15131 -0.0942,-0.51285 -0.0942,-2.07234 v -4.84592 h -1.35016 v -2.34447 h 1.35016 v -2.2084 l 2.95152,-1.71648 v 3.92488 z"
         style="font-style:normal;font-variant:normal;font-weight:bold;font-stretch:normal;font-size:21.43511391px;font-family:Arial;-inkscape-font-specification:'Arial Bold';font-variant-ligatures:normal;font-variant-caps:normal;font-variant-numeric:normal;font-feature-settings:normal;text-align:start;writing-mode:lr-tb;text-anchor:start;fill:#000000;stroke-width:0.44656482"
         id="path4113"
         inkscape:connector-curvature="0" />
      <path
         d="m 189.52486,155.15309 h -2.73172 v -1.63275 q -0.68031,0.95244 -1.61182,1.42342 -0.92104,0.46052 -1.86301,0.46052 -1.91535,0 -3.28644,-1.53855 -1.36063,-1.54902 -1.36063,-4.31214 0,-2.82592 1.32923,-4.29121 1.32923,-1.47576 3.3597,-1.47576 1.86302,0 3.22364,1.54902 v -5.52624 h 2.94105 z m -7.84977,-5.79836 q 0,1.77928 0.49192,2.57472 0.71171,1.1513 1.98861,1.1513 1.01524,0 1.72695,-0.85824 0.71171,-0.86871 0.71171,-2.58519 0,-1.91535 -0.69078,-2.75266 -0.69078,-0.84777 -1.76881,-0.84777 -1.04664,0 -1.75835,0.83731 -0.70125,0.82684 -0.70125,2.48053 z"
         style="font-style:normal;font-variant:normal;font-weight:bold;font-stretch:normal;font-size:21.43511391px;font-family:Arial;-inkscape-font-specification:'Arial Bold';font-variant-ligatures:normal;font-variant-caps:normal;font-variant-numeric:normal;font-feature-settings:normal;text-align:start;writing-mode:lr-tb;text-anchor:start;fill:#000000;stroke-width:0.44656482"
         id="path4115"
         inkscape:connector-curvature="0" />
    </g>
    <g
       transform="matrix(2.3011326,0,0,2.3011326,-188.20041,-354.55337)"
       id="g4091">
      <path
         style="color:#000000;font-style:normal;font-variant:normal;font-weight:normal;font-stretch:normal;font-size:medium;line-height:normal;font-family:sans-serif;font-variant-ligatures:normal;font-variant-position:normal;font-variant-caps:normal;font-variant-numeric:normal;font-variant-alternates:normal;font-feature-settings:normal;text-indent:0;text-align:start;text-decoration:none;text-decoration-line:none;text-decoration-style:solid;text-decoration-color:#000000;letter-spacing:normal;word-spacing:normal;text-transform:none;writing-mode:lr-tb;direction:ltr;text-orientation:mixed;dominant-baseline:auto;baseline-shift:baseline;text-anchor:start;white-space:normal;shape-padding:0;clip-rule:nonzero;display:inline;overflow:visible;visibility:visible;opacity:1;isolation:auto;mix-blend-mode:normal;color-interpolation:sRGB;color-interpolation-filters:linearRGB;solid-color:#000000;solid-opacity:1;vector-effect:none;fill:#0084c8;fill-opacity:1;fill-rule:nonzero;stroke:none;stroke-width:3.87149882;stroke-linecap:butt;stroke-linejoin:miter;stroke-miterlimit:4;stroke-dasharray:none;stroke-dashoffset:0;stroke-opacity:1;color-rendering:auto;image-rendering:auto;shape-rendering:auto;text-rendering:auto;enable-background:accumulate"
         d="m 95.142171,133.85796 2.1e-4,3.86142 c -2.299898,0.30066 -4.471861,1.55873 -5.262261,5.23761 -0.703588,3.27482 0.985324,6.55478 4.097056,7.79467 l 1.540021,0.61374 -1.420291,6.21683 -3.774439,-0.86201 0.717074,-3.13677 c -3.894939,-2.32729 -5.967959,-6.94615 -4.933879,-11.48722 v -0.001 -0.003 c 0.90307,-4.42629 4.181935,-8.19879 9.036509,-8.23449 z"
         id="path4081"
         inkscape:connector-curvature="0"
         sodipodi:nodetypes="ccscccccccccc" />
      <g
         transform="translate(36.657663,53.379805)"
         id="g4087"
         style="fill:#19aeff">
        <path
           style="opacity:1;fill:#19aeff;fill-opacity:1;stroke:none;stroke-width:3;stroke-miterlimit:4;stroke-dasharray:none;stroke-opacity:1"
           d="m 56.66114,89.598839 h 6.280834 v 5.211756 H 56.66114 Z"
           id="rect4083"
           inkscape:connector-curvature="0" />
        <path
           transform="matrix(0.71025167,-0.08083086,0.19031136,0.30166487,2.5062123,66.404699)"
           style="opacity:1;fill:#19aeff;fill-opacity:1;stroke:none;stroke-width:3;stroke-miterlimit:4;stroke-dasharray:none;stroke-opacity:1"
           inkscape:transform-center-y="-0.6372284"
           d="M 62.432243,95.369934 48.777668,91.711201 58.773511,81.715358 Z"
           id="path4085"
           inkscape:connector-curvature="0" />
      </g>
      <path
         sodipodi:nodetypes="ccscccccccccc"
         inkscape:connector-curvature="0"
         id="path4089"
         d="m 97.857996,133.85796 -2.1e-4,3.86142 c 2.299894,0.30066 4.471874,1.55873 5.262274,5.23761 0.7036,3.27482 -0.98533,6.55478 -4.097069,7.79467 l -1.540021,0.61374 1.420291,6.21683 3.774449,-0.86201 -0.71708,-3.13677 c 3.89497,-2.32729 5.968,-6.94615 4.93391,-11.48722 v -0.001 -0.003 c -0.90307,-4.42629 -4.18196,-8.19879 -9.036544,-8.23449 z"
         style="color:#000000;font-style:normal;font-variant:normal;font-weight:normal;font-stretch:normal;font-size:medium;line-height:normal;font-family:sans-serif;font-variant-ligatures:normal;font-variant-position:normal;font-variant-caps:normal;font-variant-numeric:normal;font-variant-alternates:normal;font-feature-settings:normal;text-indent:0;text-align:start;text-decoration:none;text-decoration-line:none;text-decoration-style:solid;text-decoration-color:#000000;letter-spacing:normal;word-spacing:normal;text-transform:none;writing-mode:lr-tb;direction:ltr;text-orientation:mixed;dominant-baseline:auto;baseline-shift:baseline;text-anchor:start;white-space:normal;shape-padding:0;clip-rule:nonzero;display:inline;overflow:visible;visibility:visible;opacity:1;isolation:auto;mix-blend-mode:normal;color-interpolation:sRGB;color-interpolation-filters:linearRGB;solid-color:#000000;solid-opacity:1;vector-effect:none;fill:#0084c8;fill-opacity:1;fill-rule:nonzero;stroke:none;stroke-width:3.87149882;stroke-linecap:butt;stroke-linejoin:miter;stroke-miterlimit:4;stroke-dasharray:none;stroke-dashoffset:0;stroke-opacity:1;color-rendering:auto;image-rendering:auto;shape-rendering:auto;text-rendering:auto;enable-background:accumulate" />
    </g>
  </g>
</svg>
