<?xml version="1.0" encoding="UTF-8" standalone="no"?>
<!-- Created with Inkscape (http://www.inkscape.org/) -->

<svg
   xmlns:dc="http://purl.org/dc/elements/1.1/"
   xmlns:cc="http://creativecommons.org/ns#"
   xmlns:rdf="http://www.w3.org/1999/02/22-rdf-syntax-ns#"
   xmlns:svg="http://www.w3.org/2000/svg"
   xmlns="http://www.w3.org/2000/svg"
   xmlns:xlink="http://www.w3.org/1999/xlink"
   xmlns:sodipodi="http://sodipodi.sourceforge.net/DTD/sodipodi-0.dtd"
   xmlns:inkscape="http://www.inkscape.org/namespaces/inkscape"
   sodipodi:docname="backups.svg"
   inkscape:version="0.92.4 (5da689c313, 2019-01-14)"
   sodipodi:version="0.32"
   id="svg2913"
   height="48"
   width="48"
   inkscape:output_extension="org.inkscape.output.svg.inkscape"
   version="1.1">
  <defs
     id="defs3">
    <inkscape:perspective
       sodipodi:type="inkscape:persp3d"
       inkscape:vp_x="0 : 24 : 1"
       inkscape:vp_y="0 : 1000 : 0"
       inkscape:vp_z="48 : 24 : 1"
       inkscape:persp3d-origin="24 : 16 : 1"
       id="perspective79" />
    <radialGradient
       inkscape:collect="always"
       xlink:href="#linearGradient5060"
       id="radialGradient6719"
       gradientUnits="userSpaceOnUse"
       gradientTransform="matrix(-0.06804855,0,0,0.041103,48.456306,17.938594)"
       cx="605.71429"
       cy="486.64789"
       fx="605.71429"
       fy="486.64789"
       r="117.14286" />
    <linearGradient
       inkscape:collect="always"
       id="linearGradient5060">
      <stop
         style="stop-color:black;stop-opacity:1;"
         offset="0"
         id="stop5062" />
      <stop
         style="stop-color:black;stop-opacity:0;"
         offset="1"
         id="stop5064" />
    </linearGradient>
    <radialGradient
       inkscape:collect="always"
       xlink:href="#linearGradient5060"
       id="radialGradient6717"
       gradientUnits="userSpaceOnUse"
       gradientTransform="matrix(0.06804855,0,0,0.041103,-0.70629924,17.938594)"
       cx="605.71429"
       cy="486.64789"
       fx="605.71429"
       fy="486.64789"
       r="117.14286" />
    <linearGradient
       id="linearGradient5048">
      <stop
         style="stop-color:black;stop-opacity:0;"
         offset="0"
         id="stop5050" />
      <stop
         id="stop5056"
         offset="0.5"
         style="stop-color:black;stop-opacity:1;" />
      <stop
         style="stop-color:black;stop-opacity:0;"
         offset="1"
         id="stop5052" />
    </linearGradient>
    <linearGradient
       inkscape:collect="always"
       xlink:href="#linearGradient5048"
       id="linearGradient6715"
       gradientUnits="userSpaceOnUse"
       gradientTransform="matrix(0.06804855,0,0,0.041103,-0.7196912,17.938594)"
       x1="302.85715"
       y1="366.64789"
       x2="302.85715"
       y2="609.50507" />
    <linearGradient
       id="linearGradient2555">
      <stop
         id="stop2557"
         offset="0"
         style="stop-color:#ffffff;stop-opacity:1;" />
      <stop
         style="stop-color:#e6e6e6;stop-opacity:1.0000000;"
         offset="0.50000000"
         id="stop2561" />
      <stop
         id="stop2563"
         offset="0.75000000"
         style="stop-color:#ffffff;stop-opacity:1.0000000;" />
      <stop
         style="stop-color:#e1e1e1;stop-opacity:1.0000000;"
         offset="0.84166664"
         id="stop2565" />
      <stop
         id="stop2559"
         offset="1.0000000"
         style="stop-color:#ffffff;stop-opacity:1.0000000;" />
    </linearGradient>
    <linearGradient
       id="linearGradient4274">
      <stop
         style="stop-color:#ffffff;stop-opacity:0.25490198;"
         offset="0.0000000"
         id="stop4276" />
      <stop
         style="stop-color:#ffffff;stop-opacity:1.0000000;"
         offset="1.0000000"
         id="stop4278" />
    </linearGradient>
    <linearGradient
       id="linearGradient4264"
       inkscape:collect="always">
      <stop
         id="stop4266"
         offset="0"
         style="stop-color:#000000;stop-opacity:1;" />
      <stop
         id="stop4268"
         offset="1"
         style="stop-color:#000000;stop-opacity:0;" />
    </linearGradient>
    <linearGradient
       id="linearGradient4254"
       inkscape:collect="always">
      <stop
         id="stop4256"
         offset="0"
         style="stop-color:#ffffff;stop-opacity:1;" />
      <stop
         id="stop4258"
         offset="1"
         style="stop-color:#ffffff;stop-opacity:0;" />
    </linearGradient>
    <linearGradient
       id="linearGradient4244">
      <stop
         id="stop4246"
         offset="0.0000000"
         style="stop-color:#e4e4e4;stop-opacity:1.0000000;" />
      <stop
         id="stop4248"
         offset="1.0000000"
         style="stop-color:#d3d3d3;stop-opacity:1.0000000;" />
    </linearGradient>
    <linearGradient
       id="linearGradient4236"
       inkscape:collect="always">
      <stop
         id="stop4238"
         offset="0"
         style="stop-color:#eeeeee;stop-opacity:1;" />
      <stop
         id="stop4240"
         offset="1"
         style="stop-color:#eeeeee;stop-opacity:0;" />
    </linearGradient>
    <linearGradient
       id="linearGradient4228">
      <stop
         id="stop4230"
         offset="0.0000000"
         style="stop-color:#bbbbbb;stop-opacity:1.0000000;" />
      <stop
         id="stop4232"
         offset="1.0000000"
         style="stop-color:#9f9f9f;stop-opacity:1.0000000;" />
    </linearGradient>
    <linearGradient
       id="linearGradient4184">
      <stop
         id="stop4186"
         offset="0.0000000"
         style="stop-color:#838383;stop-opacity:1.0000000;" />
      <stop
         id="stop4188"
         offset="1.0000000"
         style="stop-color:#bbbbbb;stop-opacity:0.0000000;" />
    </linearGradient>
    <linearGradient
       gradientTransform="translate(0.795493,-1.325821)"
       y2="35.28125"
       x2="24.6875"
       y1="35.28125"
       x1="7.0625"
       gradientUnits="userSpaceOnUse"
       id="linearGradient4209"
       xlink:href="#linearGradient4184"
       inkscape:collect="always" />
    <linearGradient
       gradientUnits="userSpaceOnUse"
       y2="40.943935"
       x2="36.183067"
       y1="28.481176"
       x1="7.6046205"
       id="linearGradient4234"
       xlink:href="#linearGradient4228"
       inkscape:collect="always" />
    <linearGradient
       gradientUnits="userSpaceOnUse"
       y2="33.758667"
       x2="12.221823"
       y1="37.205811"
       x1="12.277412"
       id="linearGradient4242"
       xlink:href="#linearGradient4236"
       inkscape:collect="always" />
    <radialGradient
       gradientUnits="userSpaceOnUse"
       gradientTransform="matrix(1.286242,0.781698,-0.710782,1.169552,-2.354348,-4.876862)"
       r="20.935818"
       fy="2.958519"
       fx="15.571491"
       cy="2.958519"
       cx="15.571491"
       id="radialGradient4250"
       xlink:href="#linearGradient4244"
       inkscape:collect="always" />
    <linearGradient
       gradientUnits="userSpaceOnUse"
       y2="47.620636"
       x2="44.0961"
       y1="4.433136"
       x1="12.378357"
       id="linearGradient4260"
       xlink:href="#linearGradient4254"
       inkscape:collect="always" />
    <radialGradient
       gradientUnits="userSpaceOnUse"
       gradientTransform="matrix(1,0,0,0.651032,0,9.455693)"
       r="23.555494"
       fy="27.096155"
       fx="23.201941"
       cy="27.096155"
       cx="23.201941"
       id="radialGradient4270"
       xlink:href="#linearGradient4264"
       inkscape:collect="always" />
    <linearGradient
       gradientUnits="userSpaceOnUse"
       y2="26.357183"
       x2="23.688078"
       y1="11.318835"
       x1="23.688078"
       id="linearGradient4272"
       xlink:href="#linearGradient4274"
       inkscape:collect="always" />
    <linearGradient
       inkscape:collect="always"
       xlink:href="#linearGradient2555"
       id="linearGradient2553"
       x1="33.431175"
       y1="31.964777"
       x2="21.747974"
       y2="11.780679"
       gradientUnits="userSpaceOnUse"
       gradientTransform="matrix(1.037815,0,0,1.060747,-1.632878,-2.094626)" />
    <inkscape:perspective
       id="perspective895"
       inkscape:persp3d-origin="72.347965 : 166.06399 : 1"
       inkscape:vp_z="103.24372 : 212.70727 : 1"
       inkscape:vp_y="0 : 349.62171 : 0"
       inkscape:vp_x="39.99859 : 211.38578 : 1"
       sodipodi:type="inkscape:persp3d" />
  </defs>
  <sodipodi:namedview
     inkscape:window-y="24"
     inkscape:window-x="0"
     inkscape:window-height="1054"
     inkscape:window-width="1918"
     inkscape:document-units="px"
     inkscape:grid-bbox="true"
     showgrid="false"
     inkscape:current-layer="layer2"
     inkscape:cy="50.344573"
     inkscape:cx="89.355309"
     inkscape:zoom="4"
     inkscape:pageshadow="2"
     inkscape:pageopacity="0.0"
     borderopacity="1.0"
     bordercolor="#666666"
     pagecolor="#ffffff"
     id="base"
     inkscape:window-maximized="0"
     fit-margin-top="0"
     fit-margin-left="0"
     fit-margin-right="0"
     fit-margin-bottom="0" />
  <metadata
     id="metadata4">
    <rdf:RDF>
      <cc:Work
         rdf:about="">
        <dc:format>image/svg+xml</dc:format>
        <dc:type
           rdf:resource="http://purl.org/dc/dcmitype/StillImage" />
        <dc:title></dc:title>
        <dc:creator>
          <cc:Agent>
            <dc:title>Jakub Steiner</dc:title>
          </cc:Agent>
        </dc:creator>
        <dc:subject>
          <rdf:Bag>
            <rdf:li>hdd</rdf:li>
            <rdf:li>hard drive</rdf:li>
            <rdf:li>fixed</rdf:li>
            <rdf:li>media</rdf:li>
            <rdf:li>solid</rdf:li>
          </rdf:Bag>
        </dc:subject>
        <cc:license
           rdf:resource="http://creativecommons.org/publicdomain/zero/1.0/" />
        <dc:identifier />
        <dc:source>http://jimmac.musichall.cz</dc:source>
      </cc:Work>
      <cc:License
         rdf:about="http://creativecommons.org/publicdomain/zero/1.0/">
        <cc:permits
           rdf:resource="http://creativecommons.org/ns#Reproduction" />
        <cc:permits
           rdf:resource="http://creativecommons.org/ns#Distribution" />
        <cc:permits
           rdf:resource="http://creativecommons.org/ns#DerivativeWorks" />
      </cc:License>
    </rdf:RDF>
  </metadata>
  <g
     inkscape:label="pix"
     id="layer2"
     inkscape:groupmode="layer"
     transform="translate(-2.1393092,1.3165211)">
    <path
       style="color:#000000;font-style:normal;font-variant:normal;font-weight:normal;font-stretch:normal;font-size:medium;line-height:normal;font-family:sans-serif;font-variant-ligatures:normal;font-variant-position:normal;font-variant-caps:normal;font-variant-numeric:normal;font-variant-alternates:normal;font-feature-settings:normal;text-indent:0;text-align:start;text-decoration:none;text-decoration-line:none;text-decoration-style:solid;text-decoration-color:#000000;letter-spacing:normal;word-spacing:normal;text-transform:none;writing-mode:lr-tb;direction:ltr;text-orientation:mixed;dominant-baseline:auto;baseline-shift:baseline;text-anchor:start;white-space:normal;shape-padding:0;clip-rule:nonzero;display:inline;overflow:visible;visibility:visible;opacity:1;isolation:auto;mix-blend-mode:normal;color-interpolation:sRGB;color-interpolation-filters:linearRGB;solid-color:#000000;solid-opacity:1;vector-effect:none;fill:#9cdeff;fill-opacity:1;fill-rule:nonzero;stroke:none;stroke-width:4.23081684;stroke-linecap:butt;stroke-linejoin:miter;stroke-miterlimit:4;stroke-dasharray:none;stroke-dashoffset:0;stroke-opacity:1;color-rendering:auto;image-rendering:auto;shape-rendering:auto;text-rendering:auto;enable-background:accumulate"
       d="M 26.970883,43.791806 C 35.94853,43.437959 43.942102,37.35106 46.465744,28.435662 49.349909,18.246635 44.214336,7.4602474 34.487036,3.2758944 24.759736,-0.90845829 13.39734,2.7818 7.9842531,11.882999 L 5.8658325,10.279056 7.1301786,18.785191 14.090661,15.898314 11.619908,14.045249 C 15.96399,6.741402 25.00902,3.8043242 32.815186,7.1622704 40.62135,10.520217 44.708887,19.106247 42.394289,27.283137 40.079693,35.460027 32.09732,40.630121 23.689423,39.398004 15.281527,38.165887 9.1187491,30.922849 9.2474022,22.425613 L 5.01621,22.361841 c -0.1603111,10.588178 7.582125,19.685924 18.059286,21.221277 1.309645,0.191919 2.612867,0.259246 3.895387,0.208697 z"
       id="path1703"
       inkscape:connector-curvature="0"
       sodipodi:nodetypes="csscccccsssccscc" />
    <g
       id="g1797"
       transform="matrix(0.78023138,0,0,0.78023138,7.8671469,2.867598)">
      <rect
         style="color:#000000;display:inline;overflow:visible;visibility:visible;opacity:0.40206185;fill:url(#linearGradient6715);fill-opacity:1;fill-rule:nonzero;stroke:none;stroke-width:0.0226236;stroke-linecap:round;stroke-linejoin:miter;stroke-miterlimit:4;stroke-dasharray:none;stroke-dashoffset:0;stroke-opacity:1;marker:none;marker-start:none;marker-mid:none;marker-end:none"
         id="rect6709"
         width="32.857727"
         height="9.9821568"
         x="7.4461346"
         y="33.008923" />
      <path
         style="color:#000000;display:inline;overflow:visible;visibility:visible;opacity:0.40206185;fill:url(#radialGradient6717);fill-opacity:1;fill-rule:nonzero;stroke:none;stroke-width:0.0226236;stroke-linecap:round;stroke-linejoin:miter;stroke-miterlimit:4;stroke-dasharray:none;stroke-dashoffset:0;stroke-opacity:1;marker:none;marker-start:none;marker-mid:none;marker-end:none"
         d="m 40.303863,33.009265 c 0,0 0,9.981606 0,9.981606 3.504332,0.01879 8.471769,-2.236371 8.471767,-4.991445 0,-2.755074 -3.91057,-4.99016 -8.471767,-4.990161 z"
         id="path6711"
         sodipodi:nodetypes="cccc"
         inkscape:connector-curvature="0" />
      <path
         sodipodi:nodetypes="cccc"
         id="path6713"
         d="m 7.4461351,33.009265 c 0,0 0,9.981606 0,9.981606 -3.5043326,0.01879 -8.4717688,-2.236371 -8.4717688,-4.991445 0,-2.755074 3.9105701,-4.99016 8.4717688,-4.990161 z"
         style="color:#000000;display:inline;overflow:visible;visibility:visible;opacity:0.40206185;fill:url(#radialGradient6719);fill-opacity:1;fill-rule:nonzero;stroke:none;stroke-width:0.0226236;stroke-linecap:round;stroke-linejoin:miter;stroke-miterlimit:4;stroke-dasharray:none;stroke-dashoffset:0;stroke-opacity:1;marker:none;marker-start:none;marker-mid:none;marker-end:none"
         inkscape:connector-curvature="0" />
      <path
         style="fill:none;fill-opacity:1;fill-rule:evenodd;stroke:#535353;stroke-width:2;stroke-linecap:round;stroke-linejoin:round;stroke-miterlimit:4;stroke-dasharray:none;stroke-opacity:1"
         d="m 11.28569,7.9626278 c -0.625,0 -1.031249,0.2901802 -1.281248,0.843753 -10e-7,0 -6.4687505,17.1035572 -6.4687505,17.1035572 0,0 -0.25,0.671559 -0.25,1.78125 0,0 0,9.649968 0,9.649968 0,1.082613 0.6577855,1.625002 1.65625,1.625 H 43.50444 c 0.984853,0 1.59375,-0.71818 1.59375,-1.84375 v -9.649968 c 0,0 0.105963,-0.770423 -0.09375,-1.3125 L 38.28569,8.9626314 C 38.101165,8.4507246 37.648785,7.9745331 37.16069,7.9626278 Z"
         id="path4196"
         sodipodi:nodetypes="cccsccccccccc"
         inkscape:connector-curvature="0" />
      <path
         style="fill:url(#linearGradient4234);fill-opacity:1;fill-rule:evenodd;stroke:none;stroke-width:1.02044296px;stroke-linecap:butt;stroke-linejoin:miter;stroke-opacity:1"
         d="m 3.2735915,26.996812 0.7646021,-0.692215 37.6096894,0.0625 3.462407,0.317298 v 10.438532 c 0,1.125569 -0.607018,1.843331 -1.591871,1.843331 H 4.9354314 c -0.9984647,0 -1.6618399,-0.542051 -1.6618399,-1.624664 z"
         id="path4170"
         sodipodi:nodetypes="ccccccccc"
         inkscape:connector-curvature="0" />
      <path
         style="fill:url(#radialGradient4250);fill-opacity:1;fill-rule:evenodd;stroke:none;stroke-width:1px;stroke-linecap:butt;stroke-linejoin:miter;stroke-opacity:1"
         d="m 3.5490842,25.914404 c -0.7142857,1.464286 -6.156e-4,2.392857 1.0357143,2.392857 0,0 38.9999985,0 38.9999985,0 1.119047,-0.02381 1.845238,-1.011905 1.428571,-2.142858 L 38.299082,8.9537044 C 38.114558,8.4417976 37.64432,7.9656058 37.156225,7.9537008 H 11.299083 c -0.625,0 -1.035714,0.3035732 -1.285713,0.857146 0,0 -6.4642858,17.1035572 -6.4642858,17.1035572 z"
         id="path3093"
         sodipodi:nodetypes="csccccccs"
         inkscape:connector-curvature="0" />
      <rect
         style="color:#000000;display:inline;overflow:visible;visibility:visible;opacity:1;fill:url(#linearGradient4209);fill-opacity:1;fill-rule:evenodd;stroke:none;stroke-width:2.40899992;stroke-linecap:round;stroke-linejoin:round;stroke-miterlimit:4;stroke-dasharray:none;stroke-dashoffset:0;stroke-opacity:1;marker:none;marker-start:none;marker-mid:none;marker-end:none"
         id="rect4174"
         width="17.625"
         height="5.5625"
         x="7.857996"
         y="31.174183" />
      <path
         style="opacity:0.81142853;fill:url(#linearGradient4242);fill-opacity:1;fill-rule:evenodd;stroke:none;stroke-width:1px;stroke-linecap:butt;stroke-linejoin:miter;stroke-opacity:1"
         d="m 7.8579947,36.73668 c 0,0 0,-4.011485 0,-4.011485 1.8355274,3.179226 8.2964903,4.011485 12.9374973,4.011485 0,0 -12.9374973,0 -12.9374973,0 z"
         id="path4194"
         sodipodi:nodetypes="cscc"
         inkscape:connector-curvature="0" />
      <path
         style="fill:#ffffff;fill-opacity:1;fill-rule:evenodd;stroke:none;stroke-width:1px;stroke-linecap:butt;stroke-linejoin:miter;stroke-opacity:1"
         d="m 44.796162,25.628688 c 0.06352,1.249974 -0.414003,2.31584 -1.322116,2.34375 0,0 -38.1187164,-1e-6 -38.1187163,0 -1.2892319,0 -1.867736,-0.324947 -2.0840507,-0.868056 0.091761,0.944332 0.8258174,1.649306 2.0840507,1.649306 -1e-7,-1e-6 38.1187163,0 38.1187163,0 1.076007,-0.03307 1.752805,-1.424024 1.352164,-2.994791 z"
         id="path4201"
         sodipodi:nodetypes="cccccccc"
         inkscape:connector-curvature="0" />
      <path
         style="color:#000000;display:inline;overflow:visible;visibility:visible;opacity:0.69142857;fill:url(#linearGradient4272);fill-opacity:1;fill-rule:evenodd;stroke:none;stroke-width:2;stroke-linecap:round;stroke-linejoin:round;stroke-miterlimit:4;stroke-dasharray:none;stroke-dashoffset:0;stroke-opacity:1;marker:none;marker-start:none;marker-mid:none;marker-end:none"
         d="m 10.96875,10.15625 c -0.04608,0.200321 -0.1875,0.386797 -0.1875,0.59375 0,0.948605 0.59098,1.789474 1.34375,2.59375 0.240268,-0.154075 0.365117,-0.354408 0.625,-0.5 -0.940309,-0.816004 -1.553396,-1.716582 -1.78125,-2.6875 z m 26.65625,0 c -0.228727,0.969616 -0.842012,1.872426 -1.78125,2.6875 0.274144,0.153582 0.403988,0.36824 0.65625,0.53125 0.757262,-0.806656 1.3125,-1.673044 1.3125,-2.625 0,-0.206953 -0.141594,-0.393429 -0.1875,-0.59375 z m 2.1875,8.4375 c -0.613791,4.040111 -7.298613,7.25 -15.53125,7.25 -8.212254,1e-6 -14.8601499,-3.192786 -15.5,-7.21875 -0.032357,0.197132 -0.125,0.391882 -0.125,0.59375 3e-7,4.317947 6.989104,7.843751 15.625,7.84375 8.635896,0 15.656249,-3.525802 15.65625,-7.84375 0,-0.212924 -0.08905,-0.417356 -0.125,-0.625 z"
         id="path4211"
         inkscape:connector-curvature="0" />
      <ellipse
         style="color:#000000;display:inline;overflow:visible;visibility:visible;opacity:1;fill:#ffffff;fill-opacity:0.45762712;fill-rule:evenodd;stroke:none;stroke-width:2;stroke-linecap:round;stroke-linejoin:round;stroke-miterlimit:4;stroke-dasharray:none;stroke-dashoffset:0;stroke-opacity:1;marker:none;marker-start:none;marker-mid:none;marker-end:none"
         id="path4224"
         cx="7.2920389"
         cy="25.77033"
         rx="1.3700194"
         ry="1.016466" />
      <ellipse
         id="path4226"
         style="color:#000000;display:inline;overflow:visible;visibility:visible;opacity:1;fill:#ffffff;fill-opacity:0.45762712;fill-rule:evenodd;stroke:none;stroke-width:2;stroke-linecap:round;stroke-linejoin:round;stroke-miterlimit:4;stroke-dasharray:none;stroke-dashoffset:0;stroke-opacity:1;marker:none;marker-start:none;marker-mid:none;marker-end:none"
         cx="41.1707"
         cy="25.681942"
         rx="1.3700194"
         ry="1.016466" />
      <path
         sodipodi:nodetypes="cccsccccccccc"
         id="path4252"
         d="m 11.642515,8.4157227 c -0.601692,0 -0.992791,0.2793586 -1.233466,0.8122873 -10e-7,0 -6.4150149,16.590722 -6.4150149,16.590722 0,0 -0.2406768,0.646515 -0.2406768,1.714823 0,0 0,9.290096 0,9.290096 0,1.35474 0.4440561,1.626899 1.5944841,1.626899 H 43.034746 c 1.323126,0 1.534316,-0.316397 1.534316,-1.837492 v -9.290096 c 0,0 0.10201,-0.741691 -0.09025,-1.263553 L 37.885616,9.2534336 C 37.707973,8.7606171 37.334964,8.427184 36.865071,8.4157227 Z"
         style="fill:none;fill-opacity:1;fill-rule:evenodd;stroke:url(#linearGradient4260);stroke-width:1.00000024;stroke-linecap:round;stroke-linejoin:round;stroke-miterlimit:4;stroke-dasharray:none;stroke-opacity:1"
         inkscape:connector-curvature="0" />
      <path
         id="path4282"
         d="m 40.5,31.429166 v 5.020935"
         style="fill:none;fill-opacity:0.75;fill-rule:evenodd;stroke:#ffffff;stroke-width:1.00000048px;stroke-linecap:square;stroke-linejoin:miter;stroke-opacity:0.42372885"
         inkscape:connector-curvature="0" />
      <path
         style="fill:none;fill-opacity:0.75;fill-rule:evenodd;stroke:#ffffff;stroke-width:1.00000048px;stroke-linecap:square;stroke-linejoin:miter;stroke-opacity:0.42372885"
         d="m 38.5,31.488943 v 5.020935"
         id="path4284"
         inkscape:connector-curvature="0" />
      <path
         id="path4286"
         d="m 36.5,31.488943 v 5.020935"
         style="fill:none;fill-opacity:0.75;fill-rule:evenodd;stroke:#ffffff;stroke-width:1.00000048px;stroke-linecap:square;stroke-linejoin:miter;stroke-opacity:0.42372885"
         inkscape:connector-curvature="0" />
      <path
         style="fill:none;fill-opacity:0.75;fill-rule:evenodd;stroke:#ffffff;stroke-width:1.00000048px;stroke-linecap:square;stroke-linejoin:miter;stroke-opacity:0.42372885"
         d="m 34.5,31.488943 v 5.020935"
         id="path4288"
         inkscape:connector-curvature="0" />
      <path
         id="path4290"
         d="m 32.5,31.488943 v 5.020935"
         style="fill:none;fill-opacity:0.75;fill-rule:evenodd;stroke:#ffffff;stroke-width:1.00000048px;stroke-linecap:square;stroke-linejoin:miter;stroke-opacity:0.42372885"
         inkscape:connector-curvature="0" />
      <path
         style="fill:none;fill-opacity:0.75;fill-rule:evenodd;stroke:#ffffff;stroke-width:1.00000048px;stroke-linecap:square;stroke-linejoin:miter;stroke-opacity:0.42372885"
         d="m 30.5,31.488943 v 5.020935"
         id="path4292"
         inkscape:connector-curvature="0" />
      <path
         style="opacity:0.09714284;fill:none;fill-opacity:0.75;fill-rule:evenodd;stroke:#000000;stroke-width:1.00000048px;stroke-linecap:square;stroke-linejoin:miter;stroke-opacity:1"
         d="M 39.5,31.479065 V 36.5"
         id="path4294"
         inkscape:connector-curvature="0" />
      <path
         id="path4296"
         d="m 37.5,31.538842 v 5.020935"
         style="opacity:0.09714284;fill:none;fill-opacity:0.75;fill-rule:evenodd;stroke:#000000;stroke-width:1.00000048px;stroke-linecap:square;stroke-linejoin:miter;stroke-opacity:1"
         inkscape:connector-curvature="0" />
      <path
         style="opacity:0.09714284;fill:none;fill-opacity:0.75;fill-rule:evenodd;stroke:#000000;stroke-width:1.00000048px;stroke-linecap:square;stroke-linejoin:miter;stroke-opacity:1"
         d="m 35.5,31.538842 v 5.020935"
         id="path4298"
         inkscape:connector-curvature="0" />
      <path
         id="path4300"
         d="m 33.5,31.538842 v 5.020935"
         style="opacity:0.09714284;fill:none;fill-opacity:0.75;fill-rule:evenodd;stroke:#000000;stroke-width:1.00000048px;stroke-linecap:square;stroke-linejoin:miter;stroke-opacity:1"
         inkscape:connector-curvature="0" />
      <path
         style="opacity:0.09714284;fill:none;fill-opacity:0.75;fill-rule:evenodd;stroke:#000000;stroke-width:1.00000048px;stroke-linecap:square;stroke-linejoin:miter;stroke-opacity:1"
         d="m 31.5,31.538842 v 5.020935"
         id="path4302"
         inkscape:connector-curvature="0" />
      <path
         style="opacity:0.43999999;fill:#ffffff;fill-opacity:1;fill-rule:evenodd;stroke:none;stroke-width:1px;stroke-linecap:butt;stroke-linejoin:miter;stroke-opacity:1"
         d="m 7.875,31.1875 v 5.53125 H 20.4375 L 8.21875,36.375 Z"
         id="path4572"
         inkscape:connector-curvature="0" />
      <ellipse
         id="path2545"
         style="color:#000000;display:inline;overflow:visible;visibility:visible;opacity:0.20571427;fill:url(#linearGradient2553);fill-opacity:1;fill-rule:evenodd;stroke:none;stroke-width:0.97960478;stroke-linecap:square;stroke-linejoin:round;stroke-miterlimit:4;stroke-dasharray:none;stroke-dashoffset:0;stroke-opacity:0.42372879;marker:none;marker-start:none;marker-mid:none;marker-end:none"
         cx="24.312496"
         cy="18.656237"
         rx="15.437498"
         ry="7.0937457" />
      <g
         transform="matrix(1.3504626,0,0,1.3504626,-7.9391591,-5.5734871)"
         id="g1604">
        <path
           sodipodi:nodetypes="ccscccccccccc"
           inkscape:connector-curvature="0"
           id="path984"
           d="m 22.908029,13.218522 c 0,0 -0.04144,1.097176 -0.04144,1.097176 -1.640129,0.08975 -3.259552,0.477211 -4.107311,1.704023 -0.844837,1.222587 0.262006,2.599395 2.89445,3.171748 0,0 1.351732,0.293949 1.351732,0.293949 0,0 -1.520369,3.356886 -1.520369,3.356886 0,0 -3.701582,-0.537618 -3.701582,-0.537618 0,0 1.028246,-1.731102 1.028246,-1.731102 -3.238412,-1.165572 -4.276789,-3.177789 -2.833512,-4.858001 0,0 1.23e-4,-3.44e-4 1.23e-4,-3.44e-4 0,0 3.74e-4,-0.001 3.74e-4,-0.001 1.144196,-1.41798 3.680582,-2.486171 6.929295,-2.495744 0,0 -2e-6,6.8e-5 -2e-6,6.8e-5"
           style="color:#000000;font-style:normal;font-variant:normal;font-weight:normal;font-stretch:normal;font-size:medium;line-height:normal;font-family:sans-serif;font-variant-ligatures:normal;font-variant-position:normal;font-variant-caps:normal;font-variant-numeric:normal;font-variant-alternates:normal;font-feature-settings:normal;text-indent:0;text-align:start;text-decoration:none;text-decoration-line:none;text-decoration-style:solid;text-decoration-color:#000000;letter-spacing:normal;word-spacing:normal;text-transform:none;writing-mode:lr-tb;direction:ltr;text-orientation:mixed;dominant-baseline:auto;baseline-shift:baseline;text-anchor:start;white-space:normal;shape-padding:0;clip-rule:nonzero;display:inline;overflow:visible;visibility:visible;opacity:1;isolation:auto;mix-blend-mode:normal;color-interpolation:sRGB;color-interpolation-filters:linearRGB;solid-color:#000000;solid-opacity:1;vector-effect:none;fill:#0084c8;fill-opacity:1;fill-rule:nonzero;stroke:none;stroke-width:3.57407618;stroke-linecap:butt;stroke-linejoin:miter;stroke-miterlimit:4;stroke-dasharray:none;stroke-dashoffset:0;stroke-opacity:1;color-rendering:auto;image-rendering:auto;shape-rendering:auto;text-rendering:auto;enable-background:accumulate" />
        <path
           inkscape:connector-curvature="0"
           id="rect988"
           d="m 21.398058,16.031467 c 0,0 4.842826,0.0075 4.842826,0.0075 0,0 0.245407,2.026865 0.245407,2.026865 0,0 -5.295904,-0.01408 -5.295904,-0.01408 0,0 0.207671,-2.020279 0.207671,-2.020279"
           style="opacity:1;fill:#19aeff;fill-opacity:1;stroke:none;stroke-width:2.7695291;stroke-miterlimit:4;stroke-dasharray:none;stroke-opacity:1" />
        <path
           inkscape:connector-curvature="0"
           id="path990"
           d="m 63.961393,88.779128 c 0,0 -11.492453,-3.127332 -11.492453,-3.127332 0,0 6.883059,-2.796784 6.883059,-2.796784 0,0 4.609394,5.924116 4.609394,5.924116"
           inkscape:transform-center-y="-0.6372284"
           style="opacity:1;fill:#19aeff;fill-opacity:1;stroke:none;stroke-width:3;stroke-miterlimit:4;stroke-dasharray:none;stroke-opacity:1"
           transform="matrix(0.65568755,-0.07462114,0.17569095,0.27848988,-29.666992,-3.7197877)" />
        <path
           style="color:#000000;font-style:normal;font-variant:normal;font-weight:normal;font-stretch:normal;font-size:medium;line-height:normal;font-family:sans-serif;font-variant-ligatures:normal;font-variant-position:normal;font-variant-caps:normal;font-variant-numeric:normal;font-variant-alternates:normal;font-feature-settings:normal;text-indent:0;text-align:start;text-decoration:none;text-decoration-line:none;text-decoration-style:solid;text-decoration-color:#000000;letter-spacing:normal;word-spacing:normal;text-transform:none;writing-mode:lr-tb;direction:ltr;text-orientation:mixed;dominant-baseline:auto;baseline-shift:baseline;text-anchor:start;white-space:normal;shape-padding:0;clip-rule:nonzero;display:inline;overflow:visible;visibility:visible;opacity:1;isolation:auto;mix-blend-mode:normal;color-interpolation:sRGB;color-interpolation-filters:linearRGB;solid-color:#000000;solid-opacity:1;vector-effect:none;fill:#0084c8;fill-opacity:1;fill-rule:nonzero;stroke:none;stroke-width:3.57407618;stroke-linecap:butt;stroke-linejoin:miter;stroke-miterlimit:4;stroke-dasharray:none;stroke-dashoffset:0;stroke-opacity:1;color-rendering:auto;image-rendering:auto;shape-rendering:auto;text-rendering:auto;enable-background:accumulate"
           d="m 24.729424,13.218522 c 0,0 0.06454,1.098338 0.06454,1.098338 1.64848,0.092 3.288324,0.483395 4.170733,1.718607 0.88105,1.233297 -0.210031,2.612598 -2.851202,3.17065 0,0 -1.350281,0.285354 -1.350281,0.285354 0,0 1.596538,3.376633 1.596538,3.376633 0,0 3.725743,-0.501818 3.725743,-0.501818 0,0 -1.07772,-1.751397 -1.07772,-1.751397 3.262205,-1.149855 4.278314,-3.17585 2.771633,-4.87754 0,0 -1.33e-4,-3.47e-4 -1.33e-4,-3.47e-4 0,0 -4.02e-4,-0.0011 -4.02e-4,-0.0011 -1.192808,-1.431724 -3.78235,-2.507872 -7.04945,-2.517488 0,0 3e-6,5.9e-5 3e-6,5.9e-5"
           id="path994"
           inkscape:connector-curvature="0"
           sodipodi:nodetypes="ccscccccccccc" />
      </g>
    </g>
  </g>
</svg>
